<svg height="480pt" viewBox="0 0 480 480" width="480pt" xmlns="http://www.w3.org/2000/svg"><path d="m416 88h-408v384h464v-384zm-224 48h96c8.835938 0 16 7.164062 16 16s-7.164062 16-16 16h-96c-8.835938 0-16-7.164062-16-16s7.164062-16 16-16zm0 0" fill="#9bc9ff"/><g fill="#1e81ce"><path d="m479.441406 85.222656c-.089844-.230468-.183594-.4375-.289062-.664062-.085938-.230469-.183594-.457032-.296875-.679688l-48-80c-1.445313-2.40625-4.046875-3.878906-6.855469-3.878906h-368c-2.808594 0-5.410156 1.472656-6.855469 3.878906l-48 80c-.113281.222656-.210937.449219-.296875.679688-.105468.21875-.199218.433594-.289062.664062-.347656.886719-.5351565 1.828125-.558594 2.777344v384c0 4.417969 3.582031 8 8 8h464c4.417969 0 8-3.582031 8-8v-384c-.023438-.949219-.210938-1.890625-.558594-2.777344zm-21.570312-5.222656h-33.871094v-56.449219zm-385.871094 0v-64h336v64zm-16-56.449219v56.449219h-33.871094zm408 440.449219h-448v-368h448zm0 0"/><path d="m352 360h-48v-100.6875l20.289062 20.28125c3.136719 3.03125 8.128907 2.988281 11.214844-.097656 3.085938-3.085938 3.128906-8.078125.097656-11.214844l-33.9375-33.929688c-1.5-1.503906-3.539062-2.351562-5.664062-2.351562s-4.164062.847656-5.664062 2.351562l-33.9375 33.929688c-3.03125 3.136719-2.988282 8.128906.097656 11.214844 3.085937 3.085937 8.078125 3.128906 11.214844.097656l20.289062-20.28125v100.6875h-96v-100.6875l20.289062 20.28125c2.007813 2.078125 4.980469 2.910156 7.777344 2.179688 2.796875-.730469 4.984375-2.917969 5.714844-5.714844.734375-2.796875-.101562-5.769532-2.179688-7.777344l-33.9375-33.929688c-1.5-1.503906-3.539062-2.351562-5.664062-2.351562s-4.164062.847656-5.664062 2.351562l-33.9375 33.929688c-2.078126 2.007812-2.914063 4.980469-2.179688 7.777344.730469 2.796875 2.917969 4.984375 5.714844 5.714844 2.796875.730468 5.769531-.101563 7.777344-2.179688l20.289062-20.28125v100.6875h-48c-4.417969 0-8 3.582031-8 8s3.582031 8 8 8h224c4.417969 0 8-3.582031 8-8s-3.582031-8-8-8zm0 0"/><path d="m192 176h96c13.253906 0 24-10.746094 24-24s-10.746094-24-24-24h-96c-13.253906 0-24 10.746094-24 24s10.746094 24 24 24zm0-32h96c4.417969 0 8 3.582031 8 8s-3.582031 8-8 8h-96c-4.417969 0-8-3.582031-8-8s3.582031-8 8-8zm0 0"/><path d="m56 440h16v16h-16zm0 0"/><path d="m24 440h16v16h-16zm0 0"/><path d="m88 440h16v16h-16zm0 0"/><path d="m120 440h16v16h-16zm0 0"/><path d="m152 440h16v16h-16zm0 0"/><path d="m152 440h16v16h-16zm0 0"/><path d="m184 440h16v16h-16zm0 0"/><path d="m216 440h16v16h-16zm0 0"/><path d="m248 440h16v16h-16zm0 0"/><path d="m280 440h16v16h-16zm0 0"/><path d="m312 440h16v16h-16zm0 0"/><path d="m344 440h16v16h-16zm0 0"/><path d="m376 440h16v16h-16zm0 0"/><path d="m408 440h16v16h-16zm0 0"/><path d="m440 440h16v16h-16zm0 0"/></g></svg>